<?xml version="1.0" standalone="no"?>
<!DOCTYPE svg PUBLIC "-//W3C//DTD SVG 20010904//EN"
 "http://www.w3.org/TR/2001/REC-SVG-20010904/DTD/svg10.dtd">
<svg version="1.0" xmlns="http://www.w3.org/2000/svg"
 width="500.000000pt" height="500.000000pt" viewBox="0 0 500.000000 500.000000"
 preserveAspectRatio="xMidYMid meet">
<metadata>
Created by potrace 1.15, written by Peter Selinger 2001-2017
</metadata>

<g transform="translate(0.000000,500.000000) scale(0.100000,-0.100000)"
fill="#E4CA47" stroke="none">
<path d="M2500 4552 l0 -59 133 -6 c453 -22 907 -223 1246 -551 181 -176 306
-347 411 -560 137 -281 199 -553 200 -873 0 -185 -18 -332 -60 -501 -16 -64
-27 -118 -24 -121 3 -3 25 -13 50 -22 45 -17 45 -17 54 5 18 47 60 236 76 341
22 149 22 441 0 590 -71 460 -258 841 -576 1169 -176 182 -341 304 -558 414
-266 135 -532 205 -859 227 l-93 6 0 -59z"/>
</g>

<g transform="translate(0.000000,500.000000) scale(0.100000,-0.100000)"
fill="#E4CA47" stroke="none">

<path d="M1790 4484 c-434 -160 -794 -444 -1053 -832 -60 -90 -172 -307 -206
-399 l-19 -52 50 -17 c27 -9 53 -12 57 -8 4 5 22 45 40 89 207 508 660 936
1183 1116 51 18 94 33 96 35 9 6 -27 99 -39 101 -8 1 -57 -14 -109 -33z"/>
</g>
<!-- fill="#852D2C" stroke="none"> -->

<g transform="translate(0.000000,500.000000) scale(0.100000,-0.100000)"
fill="#E4CA47" stroke="none">
<path d="M395 2408 c20 -305 84 -561 204 -813 105 -219 213 -376 381 -549 193
-199 361 -322 595 -436 306 -149 582 -212 925 -212 200 0 328 14 510 59 297
72 612 232 837 424 l32 28 -37 41 -37 42 -58 -47 c-215 -175 -512 -320 -784
-384 -295 -69 -631 -69 -926 0 -342 80 -656 253 -916 504 -333 322 -531 709
-596 1167 -8 57 -15 140 -15 186 l0 82 -60 0 -61 0 6 -92z"/>
</g>

<g transform="translate(0.000000,500.000000) scale(0.100000,-0.100000)"
fill="#2C8559" stroke="none">
<path d="M2500 4337 l0 -54 113 -6 c438 -24 848 -213 1163 -539 l102 -104 42
36 42 36 -59 67 c-148 167 -349 320 -560 426 -226 113 -535 190 -760 191 l-83
0 0 -53z"/>
</g>

<g transform="translate(0.000000,500.000000) scale(0.100000,-0.100000)"
fill="#2C8559" stroke="none">
<path d="M742 1952 c-61 -17 -60 -4 0 -157 190 -483 600 -885 1093 -1070 176
-66 422 -114 583 -115 l82 0 0 53 0 54 -112 6 c-309 17 -624 126 -898 310
-145 98 -360 313 -459 460 -82 122 -166 284 -206 400 -15 42 -28 76 -29 76 0
-1 -25 -8 -54 -17z"/>
</g>

<g transform="translate(0.000000,500.000000) scale(0.100000,-0.100000)"
fill="#2C8559" stroke="none">
<path d="M4277 2386 c-23 -432 -213 -844 -534 -1157 -198 -194 -404 -323 -652
-410 l-89 -31 14 -41 c8 -23 16 -48 19 -54 3 -9 31 -3 102 22 588 212 1037
701 1194 1301 36 136 59 292 59 402 l0 82 -53 0 -54 0 -6 -114z"/>
</g>



<g transform="translate(0.000000,500.000000) scale(0.100000,-0.100000)"
fill="#2C8559" stroke="none">
<path d="M1171 3849 c-187 -186 -326 -393 -425 -634 -80 -198 -136 -457 -136
-634 l0 -81 53 0 54 0 6 113 c22 408 201 813 492 1115 l113 117 -38 42 -37 42
-82 -80z"/>
</g>

<g transform="translate(0.000000,500.000000) scale(0.100000,-0.100000)"
fill="#2C8559" stroke="none">
<path d="M2136 3005 c-47 -17 -94 -59 -112 -102 -18 -41 -18 -114 0 -156 24
-59 111 -117 176 -117 34 0 91 22 120 47 64 53 88 151 56 226 -25 62 -113 118
-181 117 -11 -1 -37 -7 -59 -15z m125 -60 c118 -62 72 -255 -61 -255 -70 0
-130 61 -130 133 0 103 102 168 191 122z"/>
<path d="M2148 2924 c-76 -41 -74 -159 2 -199 89 -46 181 36 151 137 -20 66
-92 96 -153 62z"/>
<path d="M2518 3004 c-38 -20 -61 -68 -54 -110 8 -40 43 -69 93 -79 48 -9 73
-31 73 -65 0 -51 -49 -72 -110 -47 -8 4 -24 0 -35 -9 -20 -15 -20 -15 3 -34
33 -27 93 -34 135 -16 45 18 69 55 71 106 1 53 -29 91 -85 109 -83 26 -89 30
-89 55 0 33 24 50 61 42 32 -6 69 7 69 25 0 12 -62 39 -87 39 -10 -1 -30 -7
-45 -16z"/>

<path d="M2812 3000 c-85 -52 -59 -165 43 -184 50 -10 75 -31 75 -66 0 -49
-53 -75 -101 -50 -14 8 -25 6 -44 -6 l-26 -17 28 -18 c61 -40 125 -36 173 13
25 25 30 38 30 77 0 61 -26 97 -83 112 -75 20 -87 27 -87 53 0 33 24 50 61 42
32 -6 69 7 69 25 0 12 -61 39 -87 39 -10 0 -33 -9 -51 -20z"/>
<path d="M2000 2256 l0 -186 75 0 c91 0 138 18 159 59 23 44 20 85 -9 119 -23
28 -24 32 -11 63 17 41 11 81 -16 106 -15 14 -41 19 -109 21 l-89 4 0 -186z"/>
<path d="M2310 2435 c0 -6 147 -288 171 -329 l17 -29 91 182 91 181 -30 0
c-28 0 -33 -6 -87 -115 -32 -63 -61 -115 -65 -115 -3 0 -33 52 -65 115 -56
111 -59 115 -90 115 -18 0 -33 -2 -33 -5z"/>
<path d="M2750 2255 l0 -185 30 0 c27 0 30 3 30 30 0 29 1 30 48 30 97 0 162
62 162 155 0 104 -63 155 -192 155 l-78 0 0 -185z m181 106 c23 -24 29 -38 29
-75 0 -65 -30 -97 -98 -104 l-52 -5 0 107 0 106 46 0 c37 0 51 -5 75 -29z"/>
<path d="M2830 2285 l0 -88 38 6 c45 8 72 38 72 82 0 44 -27 74 -72 82 l-38 6
0 -88z"/>
</g>




<g transform="translate(0.000000,500.000000) scale(0.100000,-0.100000)"
fill="#2c7784" stroke="none">


<path d="M2276 4164 c-368 -50 -697 -213 -962 -478 -251 -250 -406 -549 -470
-901 -25 -139 -25 -431 0 -570 48 -265 151 -504 309 -718 77 -105 239 -267
345 -345 598 -441 1406 -441 2004 0 106 78 268 240 346 346 160 217 268 475
313 747 7 45 13 158 13 255 0 97 -6 210 -13 255 -45 272 -153 530 -313 747
-78 106 -240 268 -346 346 -352 260 -798 375 -1226 316z m9 -1143 c44 -20 101
-78 116 -120 28 -73 3 -175 -58 -233 -153 -145 -402 6 -349 212 32 124 175
194 291 141z m355 -3 c46 -31 47 -42 6 -73 -29 -22 -38 -25 -56 -15 -12 6 -28
9 -36 6 -23 -9 -16 -35 11 -41 14 -3 36 -7 50 -10 15 -3 43 -21 63 -40 34 -31
37 -38 37 -87 0 -139 -146 -195 -264 -100 l-23 19 40 31 c40 32 40 32 71 15
34 -20 63 -11 69 21 5 26 -14 43 -58 50 -56 9 -100 51 -107 102 -14 108 107
183 197 122z m300 0 c19 -13 35 -28 37 -34 2 -6 -12 -23 -32 -38 -29 -22 -38
-25 -56 -16 -11 7 -27 9 -35 6 -23 -9 -16 -35 11 -41 14 -3 36 -7 49 -10 62
-13 115 -94 102 -157 -13 -66 -78 -118 -147 -118 -35 0 -110 32 -129 54 -8 11
-2 21 29 45 39 31 39 31 70 14 34 -20 63 -11 69 21 5 26 -14 43 -60 50 -27 5
-52 18 -74 40 -28 28 -34 41 -34 78 0 50 18 81 64 109 42 26 95 24 136 -3z
m-726 -587 c31 -30 43 -81 26 -121 -11 -26 -9 -33 9 -56 42 -53 20 -146 -42
-184 -26 -16 -50 -20 -134 -20 l-103 0 0 206 0 206 109 -4 c99 -3 112 -5 135
-27z m230 -78 l54 -108 53 108 54 107 52 0 c29 0 53 -2 53 -5 0 -12 -205 -415
-212 -415 -6 0 -42 64 -162 293 l-68 127 61 0 61 0 54 -107z m517 84 c69 -46
99 -121 80 -195 -22 -81 -88 -132 -171 -132 -38 0 -40 -2 -40 -30 0 -30 -1
-30 -55 -30 l-55 0 0 205 0 205 104 0 c91 0 107 -3 137 -23z"/>

</g>
</svg>
