<?xml version="1.0" standalone="no"?>
<!DOCTYPE svg PUBLIC "-//W3C//DTD SVG 20010904//EN"
 "http://www.w3.org/TR/2001/REC-SVG-20010904/DTD/svg10.dtd">
<svg version="1.0" xmlns="http://www.w3.org/2000/svg"
 width="500.000000pt" height="500.000000pt" viewBox="0 0 500.000000 500.000000"
 preserveAspectRatio="xMidYMid meet">
<metadata>
Created by potrace 1.15, written by Peter Selinger 2001-2017
</metadata>
<g transform="translate(0.000000,500.000000) scale(0.100000,-0.100000)"
fill="#000000" stroke="none">
<path d="M2500 4682 l0 -59 133 -6 c453 -22 907 -223 1246 -551 181 -176 306
-347 411 -560 137 -281 199 -553 200 -873 0 -185 -18 -332 -60 -501 -16 -64
-27 -118 -24 -121 3 -3 25 -13 50 -22 45 -17 45 -17 54 5 18 47 60 236 76 341
22 149 22 441 0 590 -71 460 -258 841 -576 1169 -176 182 -341 304 -558 414
-266 135 -532 205 -859 227 l-93 6 0 -59z"/>
<path d="M1790 4614 c-434 -160 -794 -444 -1053 -832 -60 -90 -172 -307 -206
-399 l-19 -52 50 -17 c27 -9 53 -12 57 -8 4 5 22 45 40 89 207 508 660 936
1183 1116 51 18 94 33 96 35 9 6 -27 99 -39 101 -8 1 -57 -14 -109 -33z"/>
<path d="M2500 4467 l0 -54 113 -6 c438 -24 848 -213 1163 -539 l102 -104 42
36 42 36 -59 67 c-148 167 -349 320 -560 426 -226 113 -535 190 -760 191 l-83
0 0 -53z"/>
<path d="M2276 4294 c-368 -50 -697 -213 -962 -478 -251 -250 -406 -549 -470
-901 -25 -139 -25 -431 0 -570 48 -265 151 -504 309 -718 77 -105 239 -267
345 -345 598 -441 1406 -441 2004 0 106 78 268 240 346 346 160 217 268 475
313 747 7 45 13 158 13 255 0 97 -6 210 -13 255 -45 272 -153 530 -313 747
-78 106 -240 268 -346 346 -352 260 -798 375 -1226 316z m-78 -1255 c66 -28
74 -58 70 -247 l-3 -155 -60 -53 c-88 -79 -113 -89 -225 -89 -79 0 -102 4
-137 23 -66 35 -73 57 -73 239 l0 157 56 54 c31 29 71 60 88 69 67 35 205 36
284 2z m523 11 c15 -9 19 -22 19 -65 0 -48 -4 -58 -30 -82 l-30 -26 29 -18
c43 -26 51 -48 51 -138 l0 -80 -42 -41 c-23 -22 -60 -53 -82 -68 -38 -26 -42
-27 -185 -27 l-146 0 -3 62 c-3 59 -2 62 31 87 l35 26 -34 34 c-32 32 -34 38
-34 105 0 43 6 83 14 100 19 36 121 120 155 127 14 3 31 7 36 9 25 8 198 4
216 -5z m483 4 c12 -5 16 -21 16 -69 0 -60 -2 -65 -31 -86 l-31 -22 32 -15
c19 -9 38 -29 46 -49 17 -39 18 -118 3 -161 -12 -36 -102 -116 -153 -137 -45
-19 -276 -21 -294 -3 -7 7 -12 34 -12 61 0 43 4 52 34 79 l34 30 -30 27 c-26
23 -32 37 -36 84 -7 84 4 122 46 163 58 57 100 86 135 94 39 10 219 12 241 4z
m-1058 -717 c47 -24 70 -109 43 -158 -9 -17 -6 -25 15 -44 32 -30 39 -59 34
-142 l-4 -66 -60 -54 c-32 -29 -75 -58 -94 -64 -20 -6 -99 -9 -185 -7 l-150 3
-3 232 -2 232 57 46 58 47 130 -4 c96 -3 138 -8 161 -21z m352 14 c8 -5 17
-23 21 -41 l6 -33 48 42 c45 38 52 41 107 41 87 0 92 -8 88 -144 -3 -104 -6
-118 -47 -219 -38 -95 -49 -113 -96 -152 l-52 -45 -99 0 c-54 0 -104 4 -111 8
-7 4 -32 60 -57 124 -45 113 -46 120 -46 227 l0 110 56 45 c52 43 60 46 112
46 32 0 63 -4 70 -9z m719 -14 c50 -26 63 -62 63 -169 l0 -93 -62 -58 c-38
-36 -80 -64 -110 -75 -32 -11 -48 -22 -48 -34 0 -9 -24 -37 -54 -63 l-54 -46
-69 3 -68 3 -2 235 -2 235 52 43 52 44 135 -4 c101 -3 143 -9 167 -21z"/>
<path d="M1946 3035 c-76 -27 -81 -38 -85 -197 -4 -180 5 -212 62 -239 52 -23
210 -27 261 -5 61 25 66 42 66 221 0 128 -3 165 -15 182 -33 47 -203 69 -289
38z m189 -49 c18 -8 38 -23 44 -34 15 -29 14 -263 -2 -283 -22 -29 -55 -39
-126 -39 -59 0 -74 4 -98 24 -27 24 -28 27 -31 141 -4 133 5 166 51 189 40 20
117 20 162 2z"/>
<path d="M1975 2968 c-33 -18 -35 -28 -35 -154 0 -149 7 -162 91 -171 70 -7
122 9 138 43 6 14 11 73 11 135 0 103 -1 111 -25 134 -21 22 -33 25 -92 25
-37 0 -77 -6 -88 -12z m133 -50 c19 -19 16 -193 -4 -212 -18 -18 -56 -21 -85
-6 -17 10 -19 22 -19 108 0 110 6 122 60 122 20 0 41 -5 48 -12z"/>
<path d="M2453 3026 c-44 -20 -53 -43 -53 -134 0 -103 15 -118 126 -136 68
-10 79 -15 79 -31 0 -18 -8 -20 -103 -23 l-103 -3 3 -57 3 -57 130 0 c189 1
222 25 213 159 -6 95 -27 112 -161 131 -42 6 -48 9 -45 28 3 20 10 22 93 27
l90 5 0 50 0 50 -120 2 c-85 2 -129 -2 -152 -11z"/>
<path d="M2944 3030 c-45 -18 -64 -58 -64 -132 0 -107 16 -124 135 -142 61
-10 70 -14 73 -33 3 -23 2 -23 -103 -23 l-106 0 3 -57 3 -58 80 -3 c136 -6
204 6 237 38 26 26 28 34 28 105 0 42 -4 84 -10 94 -11 22 -79 51 -120 51 -40
0 -80 17 -80 34 0 21 23 26 111 26 l80 0 -3 53 -3 52 -120 2 c-66 1 -130 -2
-141 -7z"/>
<path d="M1842 2113 l3 -228 100 -3 c149 -5 223 5 251 33 21 21 24 33 24 105
0 67 -3 83 -20 100 -11 11 -27 20 -36 20 -14 0 -14 2 0 22 18 25 21 109 6 138
-16 30 -66 40 -202 40 l-128 0 2 -227z m256 161 c18 -13 22 -25 22 -73 0 -31
-5 -62 -12 -69 -9 -9 -8 -12 4 -12 50 0 78 -114 39 -161 -17 -22 -26 -23 -132
-24 l-114 0 -3 178 -2 177 88 0 c63 0 94 -4 110 -16z"/>
<path d="M1920 2201 l0 -81 73 0 c94 0 117 15 117 74 0 67 -14 78 -109 84
l-81 5 0 -82z"/>
<path d="M1920 2030 l0 -80 96 0 c124 0 134 6 134 75 0 75 -16 85 -137 85
l-93 0 0 -80z"/>
<path d="M2360 2225 c0 -110 1 -118 41 -217 22 -57 48 -109 57 -115 9 -8 47
-13 97 -13 50 0 88 5 97 13 9 6 35 58 57 115 40 99 41 106 41 218 l0 115 -67
-3 -68 -3 -6 -120 c-7 -151 -32 -228 -63 -195 -29 31 -46 112 -46 217 l0 103
-70 0 -70 0 0 -115z"/>
<path d="M2907 2333 c-4 -3 -7 -104 -7 -224 l0 -219 23 -5 c13 -4 43 -5 68 -3
l44 3 3 61 3 62 77 7 c88 8 118 23 138 70 18 45 18 146 -1 191 -22 53 -60 64
-213 64 -71 0 -132 -3 -135 -7z m278 -68 c21 -21 25 -33 25 -88 0 -99 -14
-111 -134 -115 l-95 -4 -4 -61 c-2 -34 -4 18 -5 116 l-2 177 95 0 c88 0 98 -2
120 -25z"/>
<path d="M2980 2181 l0 -101 88 0 c117 0 127 7 127 94 0 90 -10 99 -125 104
l-90 4 0 -101z"/>
<path d="M1171 3979 c-187 -186 -326 -393 -425 -634 -80 -198 -136 -457 -136
-634 l0 -81 53 0 54 0 6 113 c22 408 201 813 492 1115 l113 117 -38 42 -37 42
-82 -80z"/>
<path d="M395 2538 c20 -305 84 -561 204 -813 105 -219 213 -376 381 -549 193
-199 361 -322 595 -436 306 -149 582 -212 925 -212 200 0 328 14 510 59 297
72 612 232 837 424 l32 28 -37 41 -37 42 -58 -47 c-215 -175 -512 -320 -784
-384 -295 -69 -631 -69 -926 0 -342 80 -656 253 -916 504 -333 322 -531 709
-596 1167 -8 57 -15 140 -15 186 l0 82 -60 0 -61 0 6 -92z"/>
<path d="M4277 2516 c-23 -432 -213 -844 -534 -1157 -198 -194 -404 -323 -652
-410 l-89 -31 14 -41 c8 -23 16 -48 19 -54 3 -9 31 -3 102 22 588 212 1037
701 1194 1301 36 136 59 292 59 402 l0 82 -53 0 -54 0 -6 -114z"/>
<path d="M742 2082 c-61 -17 -60 -4 0 -157 190 -483 600 -885 1093 -1070 176
-66 422 -114 583 -115 l82 0 0 53 0 54 -112 6 c-309 17 -624 126 -898 310
-145 98 -360 313 -459 460 -82 122 -166 284 -206 400 -15 42 -28 76 -29 76 0
-1 -25 -8 -54 -17z"/>
</g>
</svg>
